<?xml version="1.0" encoding="UTF-8" standalone="no"?>
<!-- Created with Inkscape (http://www.inkscape.org/) -->

<svg
   xmlns:dc="http://purl.org/dc/elements/1.1/"
   xmlns:cc="http://creativecommons.org/ns#"
   xmlns:rdf="http://www.w3.org/1999/02/22-rdf-syntax-ns#"
   xmlns:svg="http://www.w3.org/2000/svg"
   xmlns="http://www.w3.org/2000/svg"
   xmlns:sodipodi="http://sodipodi.sourceforge.net/DTD/sodipodi-0.dtd"
   xmlns:inkscape="http://www.inkscape.org/namespaces/inkscape"
   width="210mm"
   height="297mm"
   viewBox="0 0 210 297"
   version="1.1"
   id="svg8"
   sodipodi:docname="logo_2-borderless.svg"
   inkscape:export-filename="C:\Users\anujd\Downloads\path4535.png"
   inkscape:export-xdpi="96"
   inkscape:export-ydpi="96"
   inkscape:version="0.92.2 (5c3e80d, 2017-08-06)">
  <defs
     id="defs2" />
  <sodipodi:namedview
     id="base"
     pagecolor="#ffffff"
     bordercolor="#666666"
     borderopacity="1.0"
     inkscape:pageopacity="0.0"
     inkscape:pageshadow="2"
     inkscape:zoom="0.98994949"
     inkscape:cx="223.25996"
     inkscape:cy="660.36132"
     inkscape:document-units="mm"
     inkscape:current-layer="layer1"
     showgrid="false"
     inkscape:snap-intersection-paths="true"
     inkscape:snap-smooth-nodes="true"
     inkscape:object-paths="true"
     inkscape:window-width="1920"
     inkscape:window-height="1017"
     inkscape:window-x="-8"
     inkscape:window-y="-8"
     inkscape:window-maximized="1"
     showguides="false" />
  <metadata
     id="metadata5">
    <rdf:RDF>
      <cc:Work
         rdf:about="">
        <dc:format>image/svg+xml</dc:format>
        <dc:type
           rdf:resource="http://purl.org/dc/dcmitype/StillImage" />
        <dc:title></dc:title>
      </cc:Work>
    </rdf:RDF>
  </metadata>
  <g
     inkscape:label="Layer 1"
     inkscape:groupmode="layer"
     id="layer1">
    <ellipse
       id="path3699"
       cx="105.52512"
       cy="142.86815"
       rx="101.22814"
       ry="104.23873"
       style="fill:#ffe680;stroke-width:0.60433483"
       inkscape:export-xdpi="96"
       inkscape:export-ydpi="96" />
    <path
       style="fill:#ffe680;fill-opacity:1;stroke:#010305;stroke-width:0;stroke-miterlimit:4;stroke-dasharray:0,0;stroke-opacity:1;stroke-dashoffset:0"
       d="m 129.50959,624.68772 c -15.05728,-4.39399 -26.36765,-11.19326 -38.004633,-22.84665 -26.46269,-26.49999 -32.540561,-63.30146 -16.16378,-97.87159 15.960754,-33.69193 56.750433,-53.77975 93.454123,-46.02365 17.27961,3.65147 30.32317,10.91961 43.63268,24.31304 17.34683,17.45619 24.93875,35.39731 24.93875,58.93495 0,15.9468 -2.01846,24.7043 -9.00176,39.05588 -10.6878,21.96485 -31.6798,38.84649 -55.94124,44.98765 -11.37966,2.88047 -32.06788,2.6155 -42.91414,-0.54963 z"
       id="path847"
       inkscape:connector-curvature="0"
       transform="scale(0.26458333)"
       inkscape:export-xdpi="96"
       inkscape:export-ydpi="96" />
    <path
       style="fill:#3771c8;fill-opacity:1;stroke:#010305;stroke-width:0;stroke-miterlimit:4;stroke-dasharray:none;stroke-dashoffset:0;stroke-opacity:1"
       d="M 33.818542,177.10968 C 21.073001,174.81877 10.340277,165.45094 6.0211866,152.84738 4.6325441,148.79516 4.18092,145.05144 4.4288886,139.64808 4.6834282,134.10153 5.502184,130.78845 7.8131023,125.95394 15.475546,109.92384 34.239259,101.81343 51.161203,107.2172 c 5.241912,1.67393 9.813292,4.3644 13.772288,8.10565 11.282697,10.66212 14.603114,26.45422 8.538679,40.61048 -3.56966,8.3327 -11.139098,15.69987 -19.677054,19.15127 -5.943694,2.40269 -13.572931,3.17608 -19.976574,2.02508 z m 12.174252,-11.80443 c 4.177675,-1.05488 7.726708,-3.08314 10.929678,-6.2463 4.637655,-4.58 6.810787,-9.27165 7.189402,-15.52146 0.491233,-8.1087 -3.244565,-16.01207 -9.747484,-20.62154 -12.307705,-8.72408 -29.168401,-4.59747 -35.597785,8.71245 -0.943226,1.95264 -1.902299,4.45981 -2.131274,5.57149 -1.043365,5.06556 -0.102735,11.5727 2.344083,16.21604 1.86136,3.53232 6.682393,8.17982 10.294922,9.92436 1.58392,0.7649 3.830203,1.63865 4.991743,1.94167 2.816738,0.73483 8.861213,0.74683 11.726715,0.0233 z"
       id="path857"
       inkscape:connector-curvature="0"
       inkscape:export-xdpi="96"
       inkscape:export-ydpi="96" />
    <path
       style="fill:#3771c8;fill-opacity:1;stroke:#010305;stroke-width:0;stroke-miterlimit:4;stroke-dasharray:0,0;stroke-dashoffset:0;stroke-opacity:1"
       d="M 646.51221,831.58629 C 645.3568,828.82101 630.9418,789.44601 614.47887,744.0863 537.682,532.49065 490.26161,422.84464 447.52036,358.04265 433.65751,337.02456 415.17269,318.15733 405.0713,314.71544 c -18.10883,-6.1703 -42.465,0.0617 -64.9915,16.62953 -12.09614,8.89646 -37.62314,34.30816 -50.4972,50.26911 -12.96604,16.075 -23.71506,32.06257 -32.47184,48.29709 -3.25995,6.04374 -6.25096,10.98863 -6.64668,10.98863 -0.39572,0 -4.0363,-2.78923 -8.09019,-6.19829 -15.55312,-13.07917 -30.27903,-21.23008 -49.04494,-27.14678 -9.2384,-2.91278 -29.76326,-6.65493 -36.50072,-6.65493 -1.5731,0 16.07141,-28.69857 38.27884,-62.26002 54.06354,-81.70468 106.40773,-141.25147 150.05867,-170.70682 25.10525,-16.94084 49.2424,-23.54537 65.21759,-17.84517 14.47394,5.16452 35.71868,23.46413 54.01426,46.52629 61.43052,77.43523 156.80531,280.34475 241.98321,514.8185 6.70831,18.4663 12.80928,35.18576 13.55774,37.15433 1.1962,3.14626 0.0551,5.44679 -9.4331,19.01749 -5.93666,8.49104 -14.42473,19.92207 -18.86237,25.4023 -9.50371,11.7365 -40.0667,43.60738 -41.81784,43.60738 -0.66676,0 -2.1576,-2.2625 -3.31302,-5.02779 z"
       id="path859"
       inkscape:connector-curvature="0"
       transform="scale(0.26458333)"
       inkscape:export-xdpi="96"
       inkscape:export-ydpi="96" />
  </g>
</svg>
