<?xml version="1.0" encoding="UTF-8" standalone="no"?>
<!-- Created with Inkscape (http://www.inkscape.org/) -->

<svg
   xmlns:dc="http://purl.org/dc/elements/1.1/"
   xmlns:cc="http://creativecommons.org/ns#"
   xmlns:rdf="http://www.w3.org/1999/02/22-rdf-syntax-ns#"
   xmlns:svg="http://www.w3.org/2000/svg"
   xmlns="http://www.w3.org/2000/svg"
   xmlns:sodipodi="http://sodipodi.sourceforge.net/DTD/sodipodi-0.dtd"
   xmlns:inkscape="http://www.inkscape.org/namespaces/inkscape"
   width="210mm"
   height="297mm"
   viewBox="0 0 210 297"
   version="1.1"
   id="svg8"
   sodipodi:docname="logo_2-borderless.svg"
   inkscape:export-filename="D:\OneDrive\Desktop\git\images\logo_2-borderless_1.png"
   inkscape:export-xdpi="96"
   inkscape:export-ydpi="96"
   inkscape:version="0.92.2 (5c3e80d, 2017-08-06)">
  <defs
     id="defs2" />
  <sodipodi:namedview
     id="base"
     pagecolor="#ffffff"
     bordercolor="#666666"
     borderopacity="1.0"
     inkscape:pageopacity="0.0"
     inkscape:pageshadow="2"
     inkscape:zoom="0.98994949"
     inkscape:cx="72.242154"
     inkscape:cy="579.54912"
     inkscape:document-units="mm"
     inkscape:current-layer="layer1"
     showgrid="false"
     inkscape:snap-intersection-paths="true"
     inkscape:snap-smooth-nodes="true"
     inkscape:object-paths="true"
     inkscape:window-width="1920"
     inkscape:window-height="1017"
     inkscape:window-x="-8"
     inkscape:window-y="-8"
     inkscape:window-maximized="1"
     showguides="false" />
  <metadata
     id="metadata5">
    <rdf:RDF>
      <cc:Work
         rdf:about="">
        <dc:format>image/svg+xml</dc:format>
        <dc:type
           rdf:resource="http://purl.org/dc/dcmitype/StillImage" />
        <dc:title />
      </cc:Work>
    </rdf:RDF>
  </metadata>
  <g
     inkscape:label="Layer 1"
     inkscape:groupmode="layer"
     id="layer1">
    <circle
       id="path3699"
       cx="104.29698"
       cy="147.10687"
       style="fill:#ffe680;stroke-width:0.58831841"
       inkscape:export-xdpi="96"
       inkscape:export-ydpi="96"
       r="100" />
    <path
       style="fill:#ffe680;fill-opacity:1;stroke:#010305;stroke-width:0;stroke-miterlimit:4;stroke-dasharray:none;stroke-dashoffset:0;stroke-opacity:1"
       d="m 33.902481,168.60926 c -3.935571,-1.1153 -6.891799,-2.84112 -9.933396,-5.79904 -6.916641,-6.72634 -8.505234,-16.06745 -4.224781,-24.8422 4.171715,-8.55183 14.833048,-13.6506 24.426413,-11.68192 4.516428,0.92683 7.925666,2.77166 11.404417,6.17125 4.533998,4.4308 6.518323,8.9847 6.518323,14.95912 0,4.04769 -0.527571,6.27056 -2.352819,9.91334 -2.793506,5.57521 -8.280254,9.86018 -14.621547,11.41896 -2.974339,0.73113 -8.381687,0.66388 -11.21661,-0.13951 z"
       id="path847"
       inkscape:connector-curvature="0"
       inkscape:export-xdpi="96"
       inkscape:export-ydpi="96" />
    <path
       style="fill:#3771c8;fill-opacity:1;stroke:#010305;stroke-width:0;stroke-miterlimit:4;stroke-dasharray:none;stroke-dashoffset:0;stroke-opacity:1"
       d="M 33.460374,179.95602 C 20.869467,177.75827 10.266957,168.77137 6.0002678,156.68032 4.6284729,152.79288 4.1823281,149.20139 4.4272883,144.01775 4.6787397,138.69674 5.487562,135.51839 7.7704433,130.88047 15.339923,115.50221 33.875987,107.7216 50.592627,112.90563 c 5.178315,1.60586 9.694233,4.18693 13.605197,7.77604 11.14581,10.22856 14.425943,25.3785 8.435084,38.95911 -3.526351,7.99386 -11.003954,15.06146 -19.438324,18.37251 -5.871583,2.30499 -13.408258,3.04693 -19.73421,1.94273 z m 12.026549,-11.32441 c 4.12699,-1.01199 7.632964,-2.95777 10.797075,-5.99231 4.581389,-4.39376 6.728155,-8.89463 7.102177,-14.8903 0.485273,-7.77897 -3.205201,-15.36096 -9.629224,-19.78299 -12.158382,-8.36933 -28.814517,-4.41052 -35.165897,8.35817 -0.931783,1.87324 -1.87922,4.27846 -2.105417,5.34493 -1.030706,4.85958 -0.101489,11.10212 2.315644,15.55664 1.838777,3.38868 6.601319,7.8472 10.170019,9.5208 1.564704,0.73379 3.783734,1.57202 4.931181,1.86271 2.782565,0.70495 8.753706,0.71646 11.584442,0.0224 z"
       id="path857"
       inkscape:connector-curvature="0"
       inkscape:export-xdpi="96"
       inkscape:export-ydpi="96" />
    <path
       style="fill:#3771c8;fill-opacity:1;stroke:#010305;stroke-width:0;stroke-miterlimit:4;stroke-dasharray:none;stroke-dashoffset:0;stroke-opacity:1"
       d="m 169.03316,221.12517 c -0.30199,-0.7019 -4.06969,-10.69624 -8.37266,-22.20964 -20.07265,-53.70813 -32.46707,-81.53897 -43.6385,-97.98729 -3.62337,-5.334908 -8.45481,-10.12387 -11.09505,-10.997506 -4.73316,-1.566173 -11.099214,0.01567 -16.987039,4.220981 -3.161608,2.258138 -9.833684,8.708245 -13.19862,12.759525 -3.388976,4.08023 -6.198483,8.13827 -8.487272,12.25898 -0.852063,1.53405 -1.633834,2.78919 -1.737264,2.78919 -0.103431,0 -1.054981,-0.70799 -2.11456,-1.57329 -4.06517,-3.31981 -7.91413,-5.3887 -12.819037,-6.89051 -2.414672,-0.73934 -7.779322,-1.68919 -9.540314,-1.68919 -0.411166,0 4.200637,-7.28439 10.005067,-15.803105 C 65.178676,75.264674 78.86005,60.150246 90.26924,52.67376 c 6.561842,-4.299999 12.87065,-5.97639 17.04614,-4.52954 3.7831,1.310881 9.33591,5.955769 14.11788,11.809507 16.0563,19.654951 40.98472,71.158343 63.24795,130.673493 1.75337,4.6872 3.348,8.93101 3.54363,9.43068 0.31266,0.7986 0.0144,1.38253 -2.46556,4.8271 -1.55168,2.15524 -3.77024,5.05671 -4.93012,6.44772 -2.48401,2.97902 -10.47236,11.06862 -10.93007,11.06862 -0.17427,0 -0.56393,-0.57428 -0.86593,-1.27617 z"
       id="path859"
       inkscape:connector-curvature="0"
       inkscape:export-xdpi="96"
       inkscape:export-ydpi="96" />
  </g>
</svg>
