<?xml version="1.0" encoding="UTF-8" standalone="no"?>
<!-- Created with Inkscape (http://www.inkscape.org/) -->

<svg
   xmlns:dc="http://purl.org/dc/elements/1.1/"
   xmlns:cc="http://creativecommons.org/ns#"
   xmlns:rdf="http://www.w3.org/1999/02/22-rdf-syntax-ns#"
   xmlns:svg="http://www.w3.org/2000/svg"
   xmlns="http://www.w3.org/2000/svg"
   xmlns:sodipodi="http://sodipodi.sourceforge.net/DTD/sodipodi-0.dtd"
   xmlns:inkscape="http://www.inkscape.org/namespaces/inkscape"
   width="210mm"
   height="297mm"
   viewBox="0 0 210 297"
   version="1.1"
   id="svg8"
   sodipodi:docname="logo_2.svg"
   inkscape:export-filename="D:\OneDrive\Desktop\path4535.png"
   inkscape:export-xdpi="96"
   inkscape:export-ydpi="96"
   inkscape:version="0.92.2 (5c3e80d, 2017-08-06)">
  <defs
     id="defs2" />
  <sodipodi:namedview
     id="base"
     pagecolor="#ffffff"
     bordercolor="#666666"
     borderopacity="1.0"
     inkscape:pageopacity="0.0"
     inkscape:pageshadow="2"
     inkscape:zoom="0.35"
     inkscape:cx="-315.45556"
     inkscape:cy="659.48578"
     inkscape:document-units="mm"
     inkscape:current-layer="layer1"
     showgrid="false"
     inkscape:snap-intersection-paths="true"
     inkscape:snap-smooth-nodes="true"
     inkscape:object-paths="true"
     inkscape:window-width="1920"
     inkscape:window-height="1017"
     inkscape:window-x="-8"
     inkscape:window-y="-8"
     inkscape:window-maximized="1"
     showguides="false" />
  <metadata
     id="metadata5">
    <rdf:RDF>
      <cc:Work
         rdf:about="">
        <dc:format>image/svg+xml</dc:format>
        <dc:type
           rdf:resource="http://purl.org/dc/dcmitype/StillImage" />
        <dc:title />
      </cc:Work>
    </rdf:RDF>
  </metadata>
  <g
     inkscape:label="Layer 1"
     inkscape:groupmode="layer"
     id="layer1">
    <ellipse
       id="path3699"
       cx="105.52512"
       cy="142.86815"
       rx="101.22814"
       ry="104.23873"
       style="fill:#ffe680;stroke-width:0.60433483"
       inkscape:export-xdpi="96"
       inkscape:export-ydpi="96" />
    <path
       style="fill:none;stroke:#000000;stroke-width:0.60000002;stroke-linecap:butt;stroke-linejoin:miter;stroke-miterlimit:4;stroke-dasharray:none;stroke-opacity:1"
       d="m 40.365733,106.61041 c 0,0 38.697027,-68.005634 65.159387,-67.980993 29.89641,0.02779 85.59005,159.896953 85.59005,159.896953"
       id="path3709"
       inkscape:connector-curvature="0"
       sodipodi:nodetypes="csc"
       inkscape:export-xdpi="96"
       inkscape:export-ydpi="96" />
    <path
       style="fill:none;stroke:#000000;stroke-width:0.60000002;stroke-linecap:butt;stroke-linejoin:miter;stroke-miterlimit:4;stroke-dasharray:none;stroke-opacity:1"
       d="m 66.404536,117.7787 c 0,0 5.430654,-11.92705 15.627331,-22.225353 6.105976,-6.166833 13.67854,-13.68914 23.493253,-12.309897 21.54518,3.027703 64.36096,139.15128 65.96369,138.69328"
       id="path3709-8"
       inkscape:connector-curvature="0"
       sodipodi:nodetypes="cssc"
       inkscape:export-xdpi="96"
       inkscape:export-ydpi="96" />
    <g
       id="g843"
       transform="translate(142.45402,-77.23262)"
       inkscape:export-xdpi="96"
       inkscape:export-ydpi="96">
      <ellipse
         ry="36.25774"
         rx="36.068748"
         cy="220.10077"
         cx="-102.08829"
         id="path817"
         style="fill:#ffffff;fill-opacity:1;stroke:#010305;stroke-width:0.60000002;stroke-miterlimit:4;stroke-dasharray:none;stroke-opacity:1" />
      <ellipse
         ry="23.195576"
         rx="23.197807"
         cy="220.63484"
         cx="-102.22285"
         id="path819"
         style="fill:#ffffff;fill-opacity:1;stroke:#03070c;stroke-width:0.60000002;stroke-miterlimit:4;stroke-dasharray:none;stroke-opacity:1" />
    </g>
    <path
       style="fill:#ffe680;fill-opacity:1;stroke:#010305;stroke-width:0;stroke-miterlimit:4;stroke-dasharray:0,0;stroke-opacity:1;stroke-dashoffset:0"
       d="m 129.50959,624.68772 c -15.05728,-4.39399 -26.36765,-11.19326 -38.004633,-22.84665 -26.46269,-26.49999 -32.540561,-63.30146 -16.16378,-97.87159 15.960754,-33.69193 56.750433,-53.77975 93.454123,-46.02365 17.27961,3.65147 30.32317,10.91961 43.63268,24.31304 17.34683,17.45619 24.93875,35.39731 24.93875,58.93495 0,15.9468 -2.01846,24.7043 -9.00176,39.05588 -10.6878,21.96485 -31.6798,38.84649 -55.94124,44.98765 -11.37966,2.88047 -32.06788,2.6155 -42.91414,-0.54963 z"
       id="path847"
       inkscape:connector-curvature="0"
       transform="scale(0.26458333)"
       inkscape:export-xdpi="96"
       inkscape:export-ydpi="96" />
    <path
       style="fill:#3771c8;fill-opacity:1;stroke:#010305;stroke-width:0;stroke-miterlimit:4;stroke-dasharray:0,0;stroke-dashoffset:0;stroke-opacity:1"
       d="M 128.33816,672.94761 C 80.919263,664.36727 40.988906,629.28118 24.920032,582.07595 19.753684,566.89887 18.073448,552.8772 18.995998,532.63952 c 0.946997,-20.77396 3.993121,-33.1827 12.590732,-51.28983 28.50759,-60.03885 98.31668,-90.41542 161.2736,-70.17624 19.50217,6.2695 36.50967,16.34634 51.23884,30.35873 41.97649,39.93373 54.32987,99.08124 31.76756,152.10189 -13.28067,31.20913 -41.44224,58.80203 -73.20711,71.72884 -22.1131,8.99899 -50.49715,11.89566 -74.32146,7.5847 z m 45.29346,-44.21214 c 15.54275,-3.95092 28.74668,-11.54753 40.66311,-23.39476 17.25407,-17.15387 25.33906,-34.7259 26.74767,-58.13383 1.8276,-30.37022 -12.07118,-59.97136 -36.26484,-77.23559 -45.78996,-32.67503 -108.519009,-17.21932 -132.439085,32.63146 -3.509205,7.31337 -7.077371,16.70369 -7.929258,20.86736 -3.881764,18.97247 -0.382217,43.34423 8.721,60.73533 6.92506,13.22987 24.861378,30.63654 38.301543,37.17051 5.89286,2.86485 14.25,6.13737 18.57143,7.2723 10.47948,2.75222 32.96753,2.79717 43.62843,0.0872 z"
       id="path857"
       inkscape:connector-curvature="0"
       transform="scale(0.26458333)"
       inkscape:export-xdpi="96"
       inkscape:export-ydpi="96" />
    <path
       style="fill:#3771c8;fill-opacity:1;stroke:#010305;stroke-width:0;stroke-miterlimit:4;stroke-dasharray:0,0;stroke-dashoffset:0;stroke-opacity:1"
       d="M 646.51221,831.58629 C 645.3568,828.82101 630.9418,789.44601 614.47887,744.0863 537.682,532.49065 490.26161,422.84464 447.52036,358.04265 433.65751,337.02456 415.17269,318.15733 405.0713,314.71544 c -18.10883,-6.1703 -42.465,0.0617 -64.9915,16.62953 -12.09614,8.89646 -37.62314,34.30816 -50.4972,50.26911 -12.96604,16.075 -23.71506,32.06257 -32.47184,48.29709 -3.25995,6.04374 -6.25096,10.98863 -6.64668,10.98863 -0.39572,0 -4.0363,-2.78923 -8.09019,-6.19829 -15.55312,-13.07917 -30.27903,-21.23008 -49.04494,-27.14678 -9.2384,-2.91278 -29.76326,-6.65493 -36.50072,-6.65493 -1.5731,0 16.07141,-28.69857 38.27884,-62.26002 54.06354,-81.70468 106.40773,-141.25147 150.05867,-170.70682 25.10525,-16.94084 49.2424,-23.54537 65.21759,-17.84517 14.47394,5.16452 35.71868,23.46413 54.01426,46.52629 61.43052,77.43523 156.80531,280.34475 241.98321,514.8185 6.70831,18.4663 12.80928,35.18576 13.55774,37.15433 1.1962,3.14626 0.0551,5.44679 -9.4331,19.01749 -5.93666,8.49104 -14.42473,19.92207 -18.86237,25.4023 -9.50371,11.7365 -40.0667,43.60738 -41.81784,43.60738 -0.66676,0 -2.1576,-2.2625 -3.31302,-5.02779 z"
       id="path859"
       inkscape:connector-curvature="0"
       transform="scale(0.26458333)"
       inkscape:export-xdpi="96"
       inkscape:export-ydpi="96" />
  </g>
</svg>
