<?xml version="1.0" encoding="UTF-8" standalone="no"?>
<!-- Created with Inkscape (http://www.inkscape.org/) -->

<svg
   xmlns:dc="http://purl.org/dc/elements/1.1/"
   xmlns:cc="http://creativecommons.org/ns#"
   xmlns:rdf="http://www.w3.org/1999/02/22-rdf-syntax-ns#"
   xmlns:svg="http://www.w3.org/2000/svg"
   xmlns="http://www.w3.org/2000/svg"
   xmlns:sodipodi="http://sodipodi.sourceforge.net/DTD/sodipodi-0.dtd"
   xmlns:inkscape="http://www.inkscape.org/namespaces/inkscape"
   width="210mm"
   height="297mm"
   viewBox="0 0 210 297"
   version="1.1"
   id="svg8"
   sodipodi:docname="drawing.svg"
   inkscape:export-filename="D:\OneDrive\Desktop\path4535.png"
   inkscape:export-xdpi="96"
   inkscape:export-ydpi="96"
   inkscape:version="0.92.2 (5c3e80d, 2017-08-06)">
  <defs
     id="defs2" />
  <sodipodi:namedview
     id="base"
     pagecolor="#ffffff"
     bordercolor="#666666"
     borderopacity="1.0"
     inkscape:pageopacity="0.0"
     inkscape:pageshadow="2"
     inkscape:zoom="1.979899"
     inkscape:cx="232.28909"
     inkscape:cy="746.64007"
     inkscape:document-units="mm"
     inkscape:current-layer="layer1"
     showgrid="false"
     inkscape:snap-intersection-paths="true"
     inkscape:snap-smooth-nodes="true"
     inkscape:object-paths="true"
     inkscape:window-width="1920"
     inkscape:window-height="1017"
     inkscape:window-x="-8"
     inkscape:window-y="-8"
     inkscape:window-maximized="1" />
  <metadata
     id="metadata5">
    <rdf:RDF>
      <cc:Work
         rdf:about="">
        <dc:format>image/svg+xml</dc:format>
        <dc:type
           rdf:resource="http://purl.org/dc/dcmitype/StillImage" />
        <dc:title></dc:title>
      </cc:Work>
    </rdf:RDF>
  </metadata>
  <g
     inkscape:label="Layer 1"
     inkscape:groupmode="layer"
     id="layer1">
    <ellipse
       id="path3699"
       cx="79.752975"
       cy="101.5863"
       rx="44.223213"
       ry="45.735119"
       style="stroke-width:0.26458332;fill:#ffe680"
       inkscape:export-xdpi="96"
       inkscape:export-ydpi="96" />
    <path
       style="fill:none;stroke:#000000;stroke-width:0.26458332px;stroke-linecap:butt;stroke-linejoin:miter;stroke-opacity:1"
       d="m 35.529762,101.5863 c 0,0 32.116872,-45.742441 43.677391,-45.731631 13.060752,0.01221 37.291127,71.179281 37.291127,71.179281"
       id="path3709"
       inkscape:connector-curvature="0"
       sodipodi:nodetypes="csc"
       inkscape:export-xdpi="96"
       inkscape:export-ydpi="96" />
    <path
       style="fill:none;stroke:#000000;stroke-width:0.26458332px;stroke-linecap:butt;stroke-linejoin:miter;stroke-opacity:1"
       d="m 39.100675,119.59077 c 0,0 26.738215,-42.184604 38.29511,-41.894965 11.484576,0.287827 26.740515,61.820185 27.135015,61.772735"
       id="path3709-8"
       inkscape:connector-curvature="0"
       sodipodi:nodetypes="csc"
       inkscape:export-xdpi="96"
       inkscape:export-ydpi="96" />
    <path
       style="fill:#3771c8;stroke:#3771c8;stroke-width:0.50507629;stroke-opacity:1"
       d="m 394.47087,522.98308 c -0.55035,-1.87509 -3.53558,-12.27335 -6.63385,-23.10724 -36.72543,-128.41981 -66.78238,-196.93904 -90.28577,-205.81966 -16.29663,-6.15759 -45.34517,16.60983 -86.03109,67.42876 -18.53518,23.15145 -43.07419,57.2129 -59.33034,82.35365 -2.42821,3.75534 -4.60626,6.63656 -4.8401,6.40272 -0.23384,-0.23384 -1.45571,-3.34727 -2.71526,-6.91874 -5.76936,-16.35901 -8.66357,-30.88134 -9.85078,-49.42848 -0.55168,-8.61858 -0.53461,-9.05431 0.39578,-10.10152 0.53478,-0.60193 3.32829,-4.39005 6.20779,-8.41803 38.42451,-53.74997 85.19486,-109.83826 112.78096,-135.25006 21.35026,-19.66745 34.59795,-27.97032 44.8277,-28.09536 3.52939,-0.0431 4.15359,0.11752 8.08122,2.07997 19.49649,9.74148 45.93572,52.61042 78.74478,127.67788 16.27215,37.23084 36.07698,87.9522 51.20695,131.14406 l 2.76925,7.90545 -3.55148,4.974 c -10.42492,14.60057 -22.34304,26.95354 -36.11613,37.43386 -2.27538,1.7314 -4.2545,3.14801 -4.39803,3.14801 -0.14354,0 -0.71126,-1.53417 -1.2616,-3.40927 z"
       id="path4545"
       inkscape:connector-curvature="0"
       transform="scale(0.26458333)" />
  </g>
</svg>
